<?xml version="1.0" encoding="UTF-8" standalone="no"?>
<!DOCTYPE svg PUBLIC "-//W3C//DTD SVG 1.1//EN"
 "http://www.w3.org/Graphics/SVG/1.1/DTD/svg11.dtd">
<!-- Generated by graphviz version 12.2.1 (20241206.2353)
 -->
<!-- Pages: 1 -->
<svg width="1007pt" height="98pt"
 viewBox="0.00 0.00 1007.40 98.00" xmlns="http://www.w3.org/2000/svg" xmlns:xlink="http://www.w3.org/1999/xlink">
<g id="graph0" class="graph" transform="scale(1 1) rotate(0) translate(4 94)">
<polygon fill="white" stroke="none" points="-4,4 -4,-94 1003.4,-94 1003.4,4 -4,4"/>
<!-- load_internal_data -->
<g id="node1" class="node">
<title>load_internal_data</title>
<ellipse fill="lightblue" stroke="black" cx="287.81" cy="-72" rx="79.5" ry="18"/>
<text text-anchor="middle" x="287.81" y="-66.95" font-family="Times,serif" font-size="14.00">load_internal_data</text>
</g>
<!-- merge_data -->
<g id="node4" class="node">
<title>merge_data</title>
<ellipse fill="lightpink" stroke="black" cx="462.85" cy="-45" rx="54.42" ry="18"/>
<text text-anchor="middle" x="462.85" y="-39.95" font-family="Times,serif" font-size="14.00">merge_data</text>
</g>
<!-- load_internal_data&#45;&gt;merge_data -->
<g id="edge2" class="edge">
<title>load_internal_data&#45;&gt;merge_data</title>
<path fill="none" stroke="black" d="M354.23,-61.79C369.94,-59.34 386.64,-56.74 402.08,-54.33"/>
<polygon fill="black" stroke="black" points="402.23,-57.85 411.57,-52.85 401.15,-50.93 402.23,-57.85"/>
</g>
<!-- fetch_external_data -->
<g id="node2" class="node">
<title>fetch_external_data</title>
<ellipse fill="lightblue" stroke="black" cx="83.6" cy="-18" rx="83.6" ry="18"/>
<text text-anchor="middle" x="83.6" y="-12.95" font-family="Times,serif" font-size="14.00">fetch_external_data</text>
</g>
<!-- clean_external_data -->
<g id="node3" class="node">
<title>clean_external_data</title>
<ellipse fill="lightgreen" stroke="black" cx="287.81" cy="-18" rx="84.62" ry="18"/>
<text text-anchor="middle" x="287.81" y="-12.95" font-family="Times,serif" font-size="14.00">clean_external_data</text>
</g>
<!-- fetch_external_data&#45;&gt;clean_external_data -->
<g id="edge1" class="edge">
<title>fetch_external_data&#45;&gt;clean_external_data</title>
<path fill="none" stroke="black" d="M167.43,-18C175.36,-18 183.45,-18 191.49,-18"/>
<polygon fill="black" stroke="black" points="191.28,-21.5 201.28,-18 191.28,-14.5 191.28,-21.5"/>
</g>
<!-- clean_external_data&#45;&gt;merge_data -->
<g id="edge3" class="edge">
<title>clean_external_data&#45;&gt;merge_data</title>
<path fill="none" stroke="black" d="M357.2,-28.67C371.88,-30.96 387.3,-33.37 401.65,-35.61"/>
<polygon fill="black" stroke="black" points="400.97,-39.04 411.39,-37.13 402.05,-32.13 400.97,-39.04"/>
</g>
<!-- compare_products -->
<g id="node5" class="node">
<title>compare_products</title>
<ellipse fill="lightyellow" stroke="black" cx="632.77" cy="-45" rx="79.5" ry="18"/>
<text text-anchor="middle" x="632.77" y="-39.95" font-family="Times,serif" font-size="14.00">compare_products</text>
</g>
<!-- merge_data&#45;&gt;compare_products -->
<g id="edge4" class="edge">
<title>merge_data&#45;&gt;compare_products</title>
<path fill="none" stroke="black" d="M517.44,-45C525.23,-45 533.42,-45 541.69,-45"/>
<polygon fill="black" stroke="black" points="541.47,-48.5 551.47,-45 541.47,-41.5 541.47,-48.5"/>
</g>
<!-- assess_aggregate_relationships -->
<g id="node6" class="node">
<title>assess_aggregate_relationships</title>
<ellipse fill="lightyellow" stroke="black" cx="873.84" cy="-45" rx="125.56" ry="18"/>
<text text-anchor="middle" x="873.84" y="-39.95" font-family="Times,serif" font-size="14.00">assess_aggregate_relationships</text>
</g>
<!-- compare_products&#45;&gt;assess_aggregate_relationships -->
<g id="edge5" class="edge">
<title>compare_products&#45;&gt;assess_aggregate_relationships</title>
<path fill="none" stroke="black" d="M712.72,-45C720.57,-45 728.69,-45 736.91,-45"/>
<polygon fill="black" stroke="black" points="736.67,-48.5 746.67,-45 736.67,-41.5 736.67,-48.5"/>
</g>
</g>
</svg>
