<?xml version="1.0" encoding="UTF-8" standalone="no"?>
<!DOCTYPE svg PUBLIC "-//W3C//DTD SVG 1.1//EN"
 "http://www.w3.org/Graphics/SVG/1.1/DTD/svg11.dtd">
<!-- Generated by graphviz version 12.2.1 (20241206.2353)
 -->
<!-- Pages: 1 -->
<svg width="1093pt" height="98pt"
 viewBox="0.00 0.00 1093.39 98.00" xmlns="http://www.w3.org/2000/svg" xmlns:xlink="http://www.w3.org/1999/xlink">
<g id="graph0" class="graph" transform="scale(1 1) rotate(0) translate(4 94)">
<polygon fill="white" stroke="none" points="-4,4 -4,-94 1089.39,-94 1089.39,4 -4,4"/>
<!-- load_internal_data -->
<g id="node1" class="node">
<title>load_internal_data</title>
<ellipse fill="lightblue" stroke="black" cx="83.6" cy="-72" rx="79.5" ry="18"/>
<text text-anchor="middle" x="83.6" y="-66.95" font-family="Times,serif" font-size="14.00">load_internal_data</text>
</g>
<!-- enrich_internal_data_with_web -->
<g id="node4" class="node">
<title>enrich_internal_data_with_web</title>
<ellipse fill="lightgreen" stroke="black" cx="330.8" cy="-72" rx="127.61" ry="18"/>
<text text-anchor="middle" x="330.8" y="-66.95" font-family="Times,serif" font-size="14.00">enrich_internal_data_with_web</text>
</g>
<!-- load_internal_data&#45;&gt;enrich_internal_data_with_web -->
<g id="edge2" class="edge">
<title>load_internal_data&#45;&gt;enrich_internal_data_with_web</title>
<path fill="none" stroke="black" d="M163.53,-72C172.59,-72 182.01,-72 191.56,-72"/>
<polygon fill="black" stroke="black" points="191.3,-75.5 201.3,-72 191.3,-68.5 191.3,-75.5"/>
</g>
<!-- fetch_external_data -->
<g id="node2" class="node">
<title>fetch_external_data</title>
<ellipse fill="lightblue" stroke="black" cx="83.6" cy="-18" rx="83.6" ry="18"/>
<text text-anchor="middle" x="83.6" y="-12.95" font-family="Times,serif" font-size="14.00">fetch_external_data</text>
</g>
<!-- clean_external_data -->
<g id="node3" class="node">
<title>clean_external_data</title>
<ellipse fill="lightgreen" stroke="black" cx="330.8" cy="-18" rx="84.62" ry="18"/>
<text text-anchor="middle" x="330.8" y="-12.95" font-family="Times,serif" font-size="14.00">clean_external_data</text>
</g>
<!-- fetch_external_data&#45;&gt;clean_external_data -->
<g id="edge1" class="edge">
<title>fetch_external_data&#45;&gt;clean_external_data</title>
<path fill="none" stroke="black" d="M167.61,-18C189.14,-18 212.5,-18 234.61,-18"/>
<polygon fill="black" stroke="black" points="234.52,-21.5 244.52,-18 234.52,-14.5 234.52,-21.5"/>
</g>
<!-- merge_data -->
<g id="node5" class="node">
<title>merge_data</title>
<ellipse fill="lightpink" stroke="black" cx="548.83" cy="-45" rx="54.42" ry="18"/>
<text text-anchor="middle" x="548.83" y="-39.95" font-family="Times,serif" font-size="14.00">merge_data</text>
</g>
<!-- clean_external_data&#45;&gt;merge_data -->
<g id="edge4" class="edge">
<title>clean_external_data&#45;&gt;merge_data</title>
<path fill="none" stroke="black" d="M404.64,-27.1C431.09,-30.41 460.7,-34.11 486.1,-37.28"/>
<polygon fill="black" stroke="black" points="485.59,-40.75 495.94,-38.51 486.45,-33.8 485.59,-40.75"/>
</g>
<!-- enrich_internal_data_with_web&#45;&gt;merge_data -->
<g id="edge3" class="edge">
<title>enrich_internal_data_with_web&#45;&gt;merge_data</title>
<path fill="none" stroke="black" d="M427.81,-60C447.6,-57.53 467.93,-54.99 486.1,-52.72"/>
<polygon fill="black" stroke="black" points="486.41,-56.2 495.9,-51.49 485.55,-49.26 486.41,-56.2"/>
</g>
<!-- compare_products -->
<g id="node6" class="node">
<title>compare_products</title>
<ellipse fill="lightyellow" stroke="black" cx="718.76" cy="-45" rx="79.5" ry="18"/>
<text text-anchor="middle" x="718.76" y="-39.95" font-family="Times,serif" font-size="14.00">compare_products</text>
</g>
<!-- merge_data&#45;&gt;compare_products -->
<g id="edge5" class="edge">
<title>merge_data&#45;&gt;compare_products</title>
<path fill="none" stroke="black" d="M603.43,-45C611.21,-45 619.4,-45 627.67,-45"/>
<polygon fill="black" stroke="black" points="627.45,-48.5 637.45,-45 627.45,-41.5 627.45,-48.5"/>
</g>
<!-- assess_aggregate_relationships -->
<g id="node7" class="node">
<title>assess_aggregate_relationships</title>
<ellipse fill="lightyellow" stroke="black" cx="959.82" cy="-45" rx="125.56" ry="18"/>
<text text-anchor="middle" x="959.82" y="-39.95" font-family="Times,serif" font-size="14.00">assess_aggregate_relationships</text>
</g>
<!-- compare_products&#45;&gt;assess_aggregate_relationships -->
<g id="edge6" class="edge">
<title>compare_products&#45;&gt;assess_aggregate_relationships</title>
<path fill="none" stroke="black" d="M798.7,-45C806.55,-45 814.67,-45 822.9,-45"/>
<polygon fill="black" stroke="black" points="822.65,-48.5 832.65,-45 822.65,-41.5 822.65,-48.5"/>
</g>
</g>
</svg>
