<?xml version="1.0" encoding="UTF-8" standalone="no"?>
<!DOCTYPE svg PUBLIC "-//W3C//DTD SVG 1.1//EN"
 "http://www.w3.org/Graphics/SVG/1.1/DTD/svg11.dtd">
<!-- Generated by graphviz version 12.2.1 (20241206.2353)
 -->
<!-- Pages: 1 -->
<svg width="1154pt" height="98pt"
 viewBox="0.00 0.00 1153.78 98.00" xmlns="http://www.w3.org/2000/svg" xmlns:xlink="http://www.w3.org/1999/xlink">
<g id="graph0" class="graph" transform="scale(1 1) rotate(0) translate(4 94)">
<polygon fill="white" stroke="none" points="-4,4 -4,-94 1149.78,-94 1149.78,4 -4,4"/>
<!-- load_internal_data -->
<g id="node1" class="node">
<title>load_internal_data</title>
<ellipse fill="lightblue" stroke="black" cx="287.81" cy="-18" rx="79.5" ry="18"/>
<text text-anchor="middle" x="287.81" y="-12.95" font-family="Times,serif" font-size="14.00">load_internal_data</text>
</g>
<!-- merge_data -->
<g id="node4" class="node">
<title>merge_data</title>
<ellipse fill="lightpink" stroke="black" cx="536.04" cy="-72" rx="54.42" ry="18"/>
<text text-anchor="middle" x="536.04" y="-66.95" font-family="Times,serif" font-size="14.00">merge_data</text>
</g>
<!-- load_internal_data&#45;&gt;merge_data -->
<g id="edge2" class="edge">
<title>load_internal_data&#45;&gt;merge_data</title>
<path fill="none" stroke="black" d="M345.07,-30.84C365.06,-35.37 387.74,-40.46 408.43,-45 431.24,-50.01 456.38,-55.4 478.22,-60.03"/>
<polygon fill="black" stroke="black" points="477.31,-63.42 487.82,-62.07 478.76,-56.57 477.31,-63.42"/>
</g>
<!-- enrich_internal_data_with_web -->
<g id="node5" class="node">
<title>enrich_internal_data_with_web</title>
<ellipse fill="lightgreen" stroke="black" cx="536.04" cy="-18" rx="127.61" ry="18"/>
<text text-anchor="middle" x="536.04" y="-12.95" font-family="Times,serif" font-size="14.00">enrich_internal_data_with_web</text>
</g>
<!-- load_internal_data&#45;&gt;enrich_internal_data_with_web -->
<g id="edge4" class="edge">
<title>load_internal_data&#45;&gt;enrich_internal_data_with_web</title>
<path fill="none" stroke="black" d="M367.73,-18C377.14,-18 386.94,-18 396.87,-18"/>
<polygon fill="black" stroke="black" points="396.61,-21.5 406.61,-18 396.61,-14.5 396.61,-21.5"/>
</g>
<!-- fetch_external_data -->
<g id="node2" class="node">
<title>fetch_external_data</title>
<ellipse fill="lightblue" stroke="black" cx="83.6" cy="-72" rx="83.6" ry="18"/>
<text text-anchor="middle" x="83.6" y="-66.95" font-family="Times,serif" font-size="14.00">fetch_external_data</text>
</g>
<!-- clean_external_data -->
<g id="node3" class="node">
<title>clean_external_data</title>
<ellipse fill="lightgreen" stroke="black" cx="287.81" cy="-72" rx="84.62" ry="18"/>
<text text-anchor="middle" x="287.81" y="-66.95" font-family="Times,serif" font-size="14.00">clean_external_data</text>
</g>
<!-- fetch_external_data&#45;&gt;clean_external_data -->
<g id="edge1" class="edge">
<title>fetch_external_data&#45;&gt;clean_external_data</title>
<path fill="none" stroke="black" d="M167.43,-72C175.36,-72 183.45,-72 191.49,-72"/>
<polygon fill="black" stroke="black" points="191.28,-75.5 201.28,-72 191.28,-68.5 191.28,-75.5"/>
</g>
<!-- clean_external_data&#45;&gt;merge_data -->
<g id="edge3" class="edge">
<title>clean_external_data&#45;&gt;merge_data</title>
<path fill="none" stroke="black" d="M372.86,-72C404.59,-72 440.19,-72 469.93,-72"/>
<polygon fill="black" stroke="black" points="469.92,-75.5 479.92,-72 469.92,-68.5 469.92,-75.5"/>
</g>
<!-- compare_products -->
<g id="node6" class="node">
<title>compare_products</title>
<ellipse fill="lightyellow" stroke="black" cx="779.15" cy="-72" rx="79.5" ry="18"/>
<text text-anchor="middle" x="779.15" y="-66.95" font-family="Times,serif" font-size="14.00">compare_products</text>
</g>
<!-- merge_data&#45;&gt;compare_products -->
<g id="edge5" class="edge">
<title>merge_data&#45;&gt;compare_products</title>
<path fill="none" stroke="black" d="M590.85,-72C619.4,-72 655.26,-72 687.93,-72"/>
<polygon fill="black" stroke="black" points="687.82,-75.5 697.82,-72 687.82,-68.5 687.82,-75.5"/>
</g>
<!-- assess_aggregate_relationships -->
<g id="node7" class="node">
<title>assess_aggregate_relationships</title>
<ellipse fill="lightyellow" stroke="black" cx="1020.22" cy="-72" rx="125.56" ry="18"/>
<text text-anchor="middle" x="1020.22" y="-66.95" font-family="Times,serif" font-size="14.00">assess_aggregate_relationships</text>
</g>
<!-- compare_products&#45;&gt;assess_aggregate_relationships -->
<g id="edge6" class="edge">
<title>compare_products&#45;&gt;assess_aggregate_relationships</title>
<path fill="none" stroke="black" d="M859.09,-72C866.95,-72 875.07,-72 883.29,-72"/>
<polygon fill="black" stroke="black" points="883.04,-75.5 893.04,-72 883.04,-68.5 883.04,-75.5"/>
</g>
</g>
</svg>
